<?xml version="1.0" encoding="utf-8"?>
<!-- Generator: Adobe Illustrator 17.0.0, SVG Export Plug-In . SVG Version: 6.00 Build 0)  -->
<!DOCTYPE svg PUBLIC "-//W3C//DTD SVG 1.1//EN" "http://www.w3.org/Graphics/SVG/1.1/DTD/svg11.dtd">
<svg version="1.1" id="logo-b" xmlns="http://www.w3.org/2000/svg" xmlns:xlink="http://www.w3.org/1999/xlink" x="0px" y="0px"
	 width="612px" height="183.516px" viewBox="0 0 612 183.516" enable-background="new 0 0 612 183.516" xml:space="preserve">
<g>
	<g>
		<path fill="#FFFFFF" d="M553.966,42.253c0.917,0.389,1.714,0.927,2.387,1.613c0.677,0.687,1.204,1.493,1.592,2.42
			c0.385,0.925,0.574,1.918,0.574,2.98c0,1.075-0.19,2.071-0.574,2.991c-0.388,0.917-0.915,1.717-1.592,2.399
			c-0.673,0.68-1.47,1.213-2.387,1.602c-0.917,0.387-1.906,0.582-2.975,0.582c-1.064,0-2.059-0.195-2.977-0.582
			c-0.915-0.388-1.713-0.921-2.388-1.602c-0.673-0.682-1.203-1.481-1.586-2.399c-0.386-0.92-0.578-1.916-0.578-2.991
			c0-1.062,0.192-2.055,0.578-2.98c0.383-0.927,0.913-1.733,1.586-2.42c0.675-0.686,1.473-1.224,2.388-1.613
			c0.918-0.388,1.913-0.582,2.977-0.582C552.059,41.671,553.049,41.865,553.966,42.253z M548.45,43.264
			c-0.775,0.34-1.445,0.803-2.013,1.388c-0.568,0.585-1.008,1.271-1.327,2.063c-0.315,0.791-0.473,1.64-0.473,2.551
			c0,0.912,0.158,1.762,0.473,2.553c0.319,0.789,0.759,1.475,1.327,2.06c0.567,0.585,1.237,1.049,2.013,1.388
			c0.776,0.339,1.621,0.509,2.541,0.509c0.904,0,1.743-0.17,2.52-0.509c0.774-0.339,1.448-0.804,2.013-1.388
			c0.567-0.585,1.014-1.272,1.337-2.06c0.321-0.791,0.485-1.641,0.485-2.553c0-0.912-0.164-1.761-0.485-2.551
			c-0.323-0.792-0.77-1.478-1.337-2.063c-0.564-0.585-1.238-1.048-2.013-1.388c-0.776-0.34-1.615-0.512-2.52-0.512
			C550.071,42.752,549.226,42.924,548.45,43.264z M548.26,53.653v-8.777h3.34c0.982,0,1.7,0.207,2.153,0.622
			c0.454,0.417,0.679,1.018,0.679,1.809c0,0.379-0.058,0.714-0.174,0.998c-0.116,0.288-0.272,0.529-0.473,0.725
			c-0.203,0.199-0.439,0.353-0.701,0.471c-0.261,0.115-0.543,0.201-0.838,0.253l2.591,3.899h-1.255l-2.449-3.899h-1.802v3.899
			H548.26z M551.711,48.807c0.317-0.02,0.594-0.08,0.836-0.175c0.246-0.093,0.439-0.247,0.589-0.458
			c0.15-0.21,0.222-0.5,0.222-0.866c0-0.315-0.058-0.566-0.171-0.758c-0.114-0.188-0.269-0.341-0.465-0.458
			c-0.198-0.114-0.417-0.194-0.656-0.235c-0.246-0.041-0.499-0.06-0.772-0.06h-1.962v3.042h1.418
			C551.07,48.838,551.391,48.826,551.711,48.807z"/>
	</g>
	<g>
		<g>
			<path fill="#FFFFFF" d="M53.482,43.818h57.494v12.08H67.461v20.909h40.267v11.405H67.461v23.381h44.291v12.076H53.482V43.818z"/>
			<path fill="#FFFFFF" d="M177.846,69.204c-0.594-2.309-1.421-4.434-2.458-6.372c-1.046-1.94-2.392-3.618-4.028-5.037
				c-1.642-1.412-3.559-2.514-5.759-3.299c-2.199-0.783-4.751-1.171-7.666-1.171c-4.25,0-7.918,0.854-11.006,2.574
				c-3.098,1.714-5.616,4.009-7.556,6.874c-1.941,2.87-3.371,6.135-4.306,9.786c-0.929,3.653-1.395,7.385-1.395,11.184
				c0,3.801,0.465,7.532,1.395,11.186c0.934,3.652,2.365,6.915,4.306,9.785c1.94,2.875,4.458,5.168,7.556,6.883
				c3.088,1.713,6.756,2.564,11.006,2.564c3.137,0,5.892-0.533,8.284-1.617c2.382-1.08,4.431-2.572,6.143-4.475
				c1.714-1.904,3.06-4.117,4.032-6.656c0.958-2.535,1.602-5.256,1.903-8.166h13.64c-0.293,4.776-1.324,9.132-3.075,13.087
				c-1.751,3.951-4.124,7.361-7.103,10.234c-2.982,2.869-6.486,5.084-10.51,6.654c-4.021,1.563-8.463,2.35-13.314,2.35
				c-5.959,0-11.312-1.102-16.044-3.305c-4.735-2.191-8.743-5.201-12.02-8.998c-3.286-3.809-5.801-8.24-7.549-13.307
				c-1.751-5.074-2.629-10.477-2.629-16.22c0-5.667,0.878-11.033,2.629-16.099c1.749-5.07,4.263-9.508,7.549-13.314
				c3.278-3.796,7.286-6.82,12.02-9.055c4.732-2.238,10.085-3.362,16.044-3.362c4.476,0,8.691,0.619,12.647,1.852
				c3.948,1.229,7.433,3.02,10.456,5.371c3.013,2.344,5.458,5.194,7.32,8.554c1.862,3.356,3.02,7.196,3.465,11.517H177.846z"/>
			<path fill="#FFFFFF" d="M238.684,41.911c5.965,0,11.313,1.123,16.048,3.362c4.736,2.235,8.737,5.259,12.022,9.055
				c3.278,3.807,5.8,8.245,7.549,13.314c1.747,5.066,2.629,10.432,2.629,16.099c0,5.743-0.883,11.146-2.629,16.22
				c-1.749,5.066-4.271,9.498-7.549,13.307c-3.285,3.797-7.285,6.807-12.022,8.998c-4.735,2.203-10.083,3.305-16.048,3.305
				c-5.966,0-11.318-1.102-16.047-3.305c-4.739-2.191-8.747-5.201-12.027-8.998c-3.278-3.809-5.799-8.24-7.551-13.307
				c-1.749-5.074-2.627-10.477-2.627-16.22c0-5.667,0.878-11.033,2.627-16.099c1.751-5.07,4.272-9.508,7.551-13.314
				c3.28-3.796,7.288-6.82,12.027-9.055C227.366,43.034,232.718,41.911,238.684,41.911z M238.684,53.325
				c-4.254,0-7.923,0.854-11.021,2.574c-3.092,1.714-5.607,4.009-7.545,6.874c-1.938,2.87-3.378,6.135-4.31,9.786
				c-0.928,3.653-1.398,7.385-1.398,11.184c0,3.801,0.47,7.532,1.398,11.186c0.932,3.652,2.372,6.915,4.31,9.785
				c1.939,2.875,4.453,5.168,7.545,6.883c3.098,1.713,6.767,2.564,11.021,2.564c4.247,0,7.915-0.852,11.01-2.564
				c3.093-1.715,5.614-4.008,7.553-6.883c1.934-2.869,3.377-6.133,4.305-9.785c0.927-3.654,1.401-7.385,1.401-11.186
				c0-3.799-0.474-7.531-1.401-11.184c-0.927-3.65-2.371-6.916-4.305-9.786c-1.939-2.864-4.46-5.16-7.553-6.874
				C246.599,54.178,242.931,53.325,238.684,53.325z"/>
			<path fill="#FFFFFF" d="M292.624,41.149h55.237v9.754h-44.453v24.17h39.085v9.482h-39.085v36.197h-10.784V41.149z"/>
			<path fill="#FFFFFF" d="M361.84,41.149h10.896v79.604H361.84V41.149z"/>
			<path fill="#FFFFFF" d="M390.235,41.149h10.786v70.121h39.94v9.483h-50.727V41.149z"/>
			<path fill="#FFFFFF" d="M451.694,41.149h15.446l22.89,67.303l22.726-67.303H528.1v79.604h-10.295V73.771
				c0-1.626,0.037-4.318,0.105-8.075c0.075-3.757,0.112-7.786,0.112-12.085l-22.732,67.141h-10.684l-22.942-67.141v2.44
				c0,1.947,0.049,4.919,0.155,8.911c0.112,3.99,0.165,6.931,0.165,8.809v46.981h-10.291V41.149z"/>
		</g>
	</g>
	<g>
		<path fill="#FFFFFF" d="M60.941,141.506v0.906h-6.023v4.039h5.35v0.906h-5.35v5.318h-1.065v-11.17H60.941z"/>
		<path fill="#FFFFFF" d="M70.609,141.506v0.906H63.96v4.039h6.227v0.906H63.96v4.41h6.728v0.908h-7.792v-11.17H70.609z"/>
		<path fill="#FFFFFF" d="M73.581,150.438c0.187,0.387,0.446,0.695,0.774,0.924c0.329,0.23,0.717,0.393,1.166,0.494
			c0.449,0.098,0.93,0.146,1.44,0.146c0.291,0,0.61-0.041,0.954-0.123c0.344-0.084,0.666-0.217,0.962-0.402
			c0.297-0.18,0.545-0.414,0.744-0.701c0.197-0.287,0.297-0.635,0.297-1.041c0-0.313-0.07-0.584-0.211-0.813
			c-0.142-0.23-0.324-0.422-0.548-0.58c-0.224-0.156-0.472-0.283-0.743-0.383c-0.272-0.098-0.538-0.18-0.798-0.242l-2.488-0.611
			c-0.323-0.084-0.64-0.186-0.947-0.313c-0.308-0.123-0.576-0.293-0.806-0.502c-0.23-0.207-0.413-0.461-0.556-0.768
			c-0.139-0.301-0.211-0.672-0.211-1.107c0-0.271,0.052-0.59,0.156-0.955c0.105-0.365,0.3-0.711,0.589-1.033
			c0.286-0.324,0.679-0.598,1.18-0.82c0.5-0.225,1.142-0.336,1.924-0.336c0.552,0,1.079,0.07,1.579,0.221
			c0.501,0.141,0.939,0.361,1.314,0.652c0.377,0.295,0.675,0.656,0.899,1.092c0.224,0.434,0.336,0.932,0.336,1.508h-1.064
			c-0.021-0.43-0.117-0.803-0.29-1.119c-0.172-0.318-0.396-0.584-0.672-0.799c-0.276-0.215-0.594-0.375-0.955-0.484
			c-0.36-0.109-0.738-0.164-1.134-0.164c-0.364,0-0.716,0.039-1.056,0.115c-0.339,0.08-0.637,0.205-0.892,0.377
			c-0.256,0.174-0.462,0.398-0.619,0.682c-0.156,0.279-0.234,0.631-0.234,1.047c0,0.264,0.044,0.488,0.133,0.682
			c0.089,0.193,0.211,0.357,0.367,0.49c0.156,0.137,0.335,0.248,0.541,0.332c0.203,0.082,0.418,0.15,0.648,0.203l2.723,0.672
			c0.396,0.105,0.768,0.234,1.119,0.383c0.35,0.152,0.657,0.338,0.923,0.564c0.266,0.223,0.474,0.498,0.627,0.818
			c0.151,0.326,0.226,0.717,0.226,1.176c0,0.125-0.014,0.291-0.04,0.502c-0.025,0.209-0.088,0.428-0.186,0.662
			c-0.1,0.234-0.241,0.473-0.423,0.715c-0.183,0.236-0.433,0.453-0.751,0.648c-0.317,0.191-0.712,0.348-1.18,0.469
			c-0.47,0.117-1.033,0.18-1.691,0.18c-0.657,0-1.266-0.076-1.831-0.229c-0.563-0.148-1.042-0.381-1.439-0.695
			c-0.396-0.311-0.701-0.713-0.915-1.203c-0.213-0.49-0.305-1.078-0.273-1.768h1.064C73.305,149.573,73.394,150.055,73.581,150.438z
			"/>
		<path fill="#FFFFFF" d="M90.962,141.506v0.906h-3.896v10.264h-1.063v-10.264h-3.879v-0.906H90.962z"/>
		<path fill="#FFFFFF" d="M93.795,141.506v11.17h-1.063v-11.17H93.795z"/>
		<path fill="#FFFFFF" d="M96.672,141.506l3.63,9.996h0.031l3.599-9.996h1.125l-4.145,11.17h-1.236l-4.13-11.17H96.672z"/>
		<path fill="#FFFFFF" d="M110.283,141.506l4.38,11.17h-1.142l-1.361-3.473h-5.085l-1.345,3.473h-1.127l4.49-11.17H110.283z
			 M111.802,148.294l-2.159-5.727l-2.238,5.727H111.802z"/>
		<path fill="#FFFFFF" d="M117.386,141.506v10.262h6.258v0.908h-7.321v-11.17H117.386z"/>
		<path fill="#FFFFFF" d="M131.498,141.506v11.17h-1.064v-11.17H131.498z"/>
		<path fill="#FFFFFF" d="M135.643,141.506l6.507,9.449h0.032v-9.449h1.063v11.17h-1.189l-6.508-9.449h-0.031v9.449h-1.064v-11.17
			H135.643z"/>
		<path fill="#FFFFFF" d="M153.775,141.506v0.906h-3.896v10.264h-1.063v-10.264h-3.88v-0.906H153.775z"/>
		<path fill="#FFFFFF" d="M163.177,141.506v0.906h-6.648v4.039h6.225v0.906h-6.225v4.41h6.726v0.908h-7.792v-11.17H163.177z"/>
		<path fill="#FFFFFF" d="M170.499,141.506c0.458,0,0.894,0.057,1.307,0.172c0.411,0.113,0.77,0.289,1.078,0.523
			c0.308,0.234,0.554,0.537,0.735,0.906c0.183,0.371,0.275,0.807,0.275,1.309c0,0.705-0.184,1.322-0.547,1.844
			c-0.366,0.523-0.909,0.857-1.628,1.002v0.031c0.364,0.051,0.668,0.15,0.906,0.289c0.241,0.143,0.436,0.32,0.588,0.541
			c0.151,0.219,0.261,0.473,0.328,0.758c0.067,0.287,0.113,0.598,0.133,0.932c0.011,0.189,0.021,0.418,0.032,0.688
			c0.011,0.273,0.031,0.547,0.062,0.822c0.031,0.277,0.081,0.537,0.148,0.783c0.068,0.242,0.159,0.434,0.274,0.57h-1.174
			c-0.061-0.105-0.112-0.232-0.148-0.383c-0.036-0.152-0.063-0.307-0.077-0.471c-0.018-0.16-0.03-0.32-0.04-0.477
			c-0.01-0.156-0.021-0.293-0.031-0.406c-0.022-0.398-0.056-0.789-0.102-1.182c-0.047-0.391-0.146-0.74-0.297-1.047
			c-0.152-0.311-0.371-0.555-0.658-0.744c-0.286-0.188-0.68-0.273-1.181-0.25h-4.035v4.959h-1.064v-11.17H170.499z M170.421,146.807
			c0.324,0,0.63-0.047,0.923-0.145c0.292-0.1,0.548-0.244,0.767-0.432c0.218-0.189,0.394-0.416,0.523-0.682
			c0.13-0.266,0.196-0.57,0.196-0.916c0-0.686-0.199-1.23-0.596-1.627c-0.396-0.395-1.001-0.594-1.813-0.594h-3.973v4.395H170.421z"
			/>
		<path fill="#FFFFFF" d="M177.633,141.506l6.509,9.449h0.031v-9.449h1.063v11.17h-1.189l-6.509-9.449h-0.031v9.449h-1.064v-11.17
			H177.633z"/>
		<path fill="#FFFFFF" d="M192.573,141.506l4.381,11.17h-1.141l-1.362-3.473h-5.085l-1.344,3.473h-1.127l4.49-11.17H192.573z
			 M194.091,148.294l-2.158-5.727l-2.238,5.727H194.091z"/>
		<path fill="#FFFFFF" d="M206.317,143.737c-0.214-0.34-0.475-0.623-0.782-0.855c-0.308-0.229-0.648-0.404-1.018-0.525
			c-0.37-0.117-0.758-0.178-1.165-0.178c-0.742,0-1.377,0.141-1.908,0.422c-0.532,0.281-0.969,0.654-1.308,1.121
			c-0.338,0.463-0.588,0.986-0.751,1.568c-0.163,0.586-0.242,1.186-0.242,1.803c0,0.602,0.079,1.201,0.242,1.789
			c0.163,0.59,0.412,1.117,0.751,1.58c0.339,0.463,0.775,0.836,1.308,1.121c0.531,0.279,1.166,0.42,1.908,0.42
			c0.521,0,0.991-0.094,1.408-0.279c0.417-0.188,0.777-0.443,1.08-0.768c0.302-0.324,0.547-0.701,0.735-1.135
			c0.188-0.434,0.307-0.898,0.358-1.4h1.065c-0.072,0.689-0.234,1.309-0.485,1.861c-0.249,0.555-0.573,1.023-0.97,1.406
			c-0.395,0.387-0.862,0.686-1.4,0.893c-0.535,0.211-1.134,0.314-1.79,0.314c-0.876,0-1.645-0.16-2.308-0.477
			c-0.663-0.318-1.213-0.744-1.65-1.275c-0.438-0.533-0.766-1.148-0.987-1.848c-0.217-0.697-0.328-1.434-0.328-2.203
			c0-0.773,0.111-1.508,0.328-2.207c0.221-0.699,0.549-1.316,0.987-1.855c0.438-0.537,0.988-0.963,1.65-1.283
			c0.663-0.316,1.432-0.475,2.308-0.475c0.532,0,1.051,0.078,1.557,0.234c0.505,0.156,0.964,0.387,1.376,0.695
			c0.412,0.307,0.756,0.686,1.033,1.133c0.276,0.449,0.45,0.967,0.524,1.551h-1.064
			C206.684,144.458,206.531,144.075,206.317,143.737z"/>
		<path fill="#FFFFFF" d="M211.409,141.506v11.17h-1.063v-11.17H211.409z"/>
		<path fill="#FFFFFF" d="M214.116,144.885c0.219-0.699,0.547-1.316,0.986-1.855c0.438-0.537,0.988-0.963,1.65-1.283
			c0.662-0.316,1.432-0.475,2.308-0.475c0.876,0,1.643,0.158,2.299,0.475c0.658,0.32,1.205,0.746,1.642,1.283
			c0.438,0.539,0.767,1.156,0.986,1.855c0.219,0.699,0.328,1.434,0.328,2.207c0,0.77-0.109,1.506-0.328,2.203
			c-0.219,0.699-0.548,1.314-0.986,1.848c-0.437,0.531-0.984,0.957-1.642,1.275c-0.657,0.316-1.423,0.477-2.299,0.477
			c-0.876,0-1.645-0.16-2.308-0.477c-0.663-0.318-1.212-0.744-1.65-1.275c-0.439-0.533-0.767-1.148-0.986-1.848
			c-0.219-0.697-0.329-1.434-0.329-2.203C213.787,146.319,213.897,145.585,214.116,144.885z M215.094,148.881
			c0.161,0.59,0.412,1.117,0.751,1.58c0.338,0.463,0.775,0.836,1.305,1.121c0.532,0.279,1.169,0.42,1.91,0.42
			c0.739,0,1.374-0.141,1.901-0.42c0.526-0.285,0.958-0.658,1.297-1.121c0.34-0.463,0.59-0.99,0.752-1.58
			c0.161-0.588,0.242-1.188,0.242-1.789c0-0.617-0.081-1.217-0.242-1.803c-0.162-0.582-0.412-1.105-0.752-1.568
			c-0.339-0.467-0.771-0.84-1.297-1.121c-0.527-0.281-1.162-0.422-1.901-0.422c-0.741,0-1.378,0.141-1.91,0.422
			c-0.53,0.281-0.967,0.654-1.305,1.121c-0.339,0.463-0.59,0.986-0.751,1.568c-0.162,0.586-0.243,1.186-0.243,1.803
			C214.851,147.694,214.931,148.294,215.094,148.881z"/>
		<path fill="#FFFFFF" d="M227.788,141.506l6.508,9.449h0.031v-9.449h1.065v11.17h-1.19l-6.509-9.449h-0.031v9.449h-1.064v-11.17
			H227.788z"/>
		<path fill="#FFFFFF" d="M242.729,141.506l4.381,11.17h-1.141l-1.362-3.473h-5.086l-1.344,3.473h-1.126l4.489-11.17H242.729z
			 M244.247,148.294l-2.158-5.727l-2.238,5.727H244.247z"/>
		<path fill="#FFFFFF" d="M249.832,141.506v10.262h6.259v0.908h-7.323v-11.17H249.832z"/>
		<path fill="#FFFFFF" d="M266.666,141.506c1.7,0.041,2.979,0.518,3.837,1.43c0.863,0.912,1.293,2.299,1.293,4.156
			c0,1.852-0.43,3.238-1.293,4.15c-0.858,0.916-2.137,1.393-3.837,1.434h-3.865v-11.17H266.666z M266.132,151.768
			c0.804,0,1.495-0.084,2.075-0.26c0.577-0.17,1.055-0.443,1.431-0.82c0.375-0.375,0.652-0.859,0.83-1.453
			c0.177-0.594,0.265-1.311,0.265-2.143c0-0.836-0.088-1.551-0.265-2.145c-0.178-0.594-0.456-1.08-0.83-1.453
			c-0.376-0.379-0.854-0.65-1.431-0.824c-0.58-0.172-1.271-0.258-2.075-0.258h-2.268v9.355H266.132z"/>
		<path fill="#FFFFFF" d="M281.872,141.506v0.906h-6.649v4.039h6.228v0.906h-6.228v4.41h6.727v0.908h-7.79v-11.17H281.872z"/>
		<path fill="#FFFFFF" d="M296.773,143.737c-0.214-0.34-0.475-0.623-0.783-0.855c-0.308-0.229-0.645-0.404-1.016-0.525
			c-0.372-0.117-0.759-0.178-1.166-0.178c-0.74,0-1.375,0.141-1.907,0.422c-0.532,0.281-0.967,0.654-1.306,1.121
			c-0.339,0.463-0.59,0.986-0.752,1.568c-0.16,0.586-0.241,1.186-0.241,1.803c0,0.602,0.081,1.201,0.241,1.789
			c0.162,0.59,0.413,1.117,0.752,1.58c0.339,0.463,0.774,0.836,1.306,1.121c0.532,0.279,1.168,0.42,1.907,0.42
			c0.521,0,0.993-0.094,1.41-0.279c0.417-0.188,0.776-0.443,1.08-0.768c0.3-0.324,0.547-0.701,0.734-1.135
			c0.188-0.434,0.308-0.898,0.361-1.4h1.064c-0.076,0.689-0.235,1.309-0.487,1.861c-0.25,0.555-0.574,1.023-0.969,1.406
			c-0.397,0.387-0.863,0.686-1.4,0.893c-0.537,0.211-1.134,0.314-1.792,0.314c-0.876,0-1.644-0.16-2.307-0.477
			c-0.661-0.318-1.212-0.744-1.65-1.275c-0.437-0.533-0.765-1.148-0.985-1.848c-0.219-0.697-0.329-1.434-0.329-2.203
			c0-0.773,0.11-1.508,0.329-2.207c0.22-0.699,0.548-1.316,0.985-1.855c0.438-0.537,0.989-0.963,1.65-1.283
			c0.663-0.316,1.431-0.475,2.307-0.475c0.534,0,1.05,0.078,1.557,0.234c0.507,0.156,0.966,0.387,1.378,0.695
			c0.41,0.307,0.754,0.686,1.032,1.133c0.276,0.449,0.45,0.967,0.525,1.551h-1.064C297.14,144.458,296.987,144.075,296.773,143.737z
			"/>
		<path fill="#FFFFFF" d="M300.458,144.885c0.219-0.699,0.549-1.316,0.985-1.855c0.439-0.537,0.989-0.963,1.651-1.283
			c0.664-0.316,1.431-0.475,2.306-0.475c0.877,0,1.643,0.158,2.301,0.475c0.657,0.32,1.204,0.746,1.642,1.283
			c0.438,0.539,0.768,1.156,0.986,1.855c0.218,0.699,0.328,1.434,0.328,2.207c0,0.77-0.11,1.506-0.328,2.203
			c-0.218,0.699-0.548,1.314-0.986,1.848c-0.438,0.531-0.985,0.957-1.642,1.275c-0.658,0.316-1.424,0.477-2.301,0.477
			c-0.875,0-1.642-0.16-2.306-0.477c-0.663-0.318-1.212-0.744-1.651-1.275c-0.436-0.533-0.767-1.148-0.985-1.848
			c-0.219-0.697-0.329-1.434-0.329-2.203C300.13,146.319,300.24,145.585,300.458,144.885z M301.434,148.881
			c0.164,0.59,0.414,1.117,0.752,1.58c0.341,0.463,0.774,0.836,1.305,1.121c0.534,0.279,1.171,0.42,1.909,0.42
			c0.74,0,1.375-0.141,1.901-0.42c0.527-0.285,0.961-0.658,1.3-1.121c0.338-0.463,0.588-0.99,0.749-1.58
			c0.164-0.588,0.244-1.188,0.244-1.789c0-0.617-0.081-1.217-0.244-1.803c-0.16-0.582-0.41-1.105-0.749-1.568
			c-0.339-0.467-0.773-0.84-1.3-1.121c-0.527-0.281-1.162-0.422-1.901-0.422c-0.738,0-1.375,0.141-1.909,0.422
			c-0.53,0.281-0.964,0.654-1.305,1.121c-0.339,0.463-0.589,0.986-0.752,1.568c-0.159,0.586-0.24,1.186-0.24,1.803
			C301.194,147.694,301.275,148.294,301.434,148.881z"/>
		<path fill="#FFFFFF" d="M318.072,141.506c0.46,0,0.896,0.057,1.308,0.172c0.413,0.113,0.773,0.289,1.081,0.523
			c0.307,0.234,0.553,0.537,0.736,0.906c0.182,0.371,0.272,0.807,0.272,1.309c0,0.705-0.183,1.322-0.547,1.844
			c-0.364,0.523-0.907,0.857-1.627,1.002v0.031c0.364,0.051,0.668,0.15,0.907,0.289c0.24,0.143,0.438,0.32,0.588,0.541
			c0.152,0.219,0.262,0.473,0.33,0.758c0.066,0.287,0.111,0.598,0.131,0.932c0.01,0.189,0.02,0.418,0.031,0.688
			c0.012,0.273,0.031,0.547,0.063,0.822c0.033,0.277,0.079,0.537,0.148,0.783c0.068,0.242,0.16,0.434,0.275,0.57h-1.174
			c-0.063-0.105-0.111-0.232-0.15-0.383c-0.036-0.152-0.059-0.307-0.076-0.471c-0.016-0.16-0.029-0.32-0.041-0.477
			c-0.01-0.156-0.02-0.293-0.029-0.406c-0.022-0.398-0.057-0.789-0.103-1.182c-0.046-0.391-0.146-0.74-0.297-1.047
			c-0.151-0.311-0.372-0.555-0.657-0.744c-0.287-0.188-0.682-0.273-1.181-0.25h-4.037v4.959h-1.064v-11.17H318.072z
			 M317.995,146.807c0.324,0,0.631-0.047,0.924-0.145c0.289-0.1,0.547-0.244,0.767-0.432c0.217-0.189,0.393-0.416,0.522-0.682
			c0.129-0.266,0.197-0.57,0.197-0.916c0-0.686-0.198-1.23-0.596-1.627c-0.396-0.395-1.001-0.594-1.815-0.594h-3.973v4.395H317.995z
			"/>
		<path fill="#FFFFFF" d="M331.783,141.506v0.906h-3.896v10.264h-1.065v-10.264h-3.882v-0.906H331.783z"/>
		<path fill="#FFFFFF" d="M333.208,144.885c0.217-0.699,0.549-1.316,0.987-1.855c0.436-0.537,0.987-0.963,1.649-1.283
			c0.663-0.316,1.433-0.475,2.309-0.475c0.878,0,1.646,0.158,2.302,0.475c0.658,0.32,1.205,0.746,1.642,1.283
			c0.439,0.539,0.768,1.156,0.988,1.855c0.219,0.699,0.327,1.434,0.327,2.207c0,0.77-0.108,1.506-0.327,2.203
			c-0.221,0.699-0.55,1.314-0.988,1.848c-0.436,0.531-0.983,0.957-1.642,1.275c-0.656,0.316-1.424,0.477-2.302,0.477
			c-0.876,0-1.646-0.16-2.309-0.477c-0.662-0.318-1.214-0.744-1.649-1.275c-0.438-0.533-0.77-1.148-0.987-1.848
			c-0.219-0.697-0.328-1.434-0.328-2.203C332.88,146.319,332.989,145.585,333.208,144.885z M334.186,148.881
			c0.161,0.59,0.412,1.117,0.749,1.58c0.341,0.463,0.777,0.836,1.309,1.121c0.531,0.279,1.169,0.42,1.908,0.42
			c0.741,0,1.376-0.141,1.903-0.42c0.526-0.285,0.959-0.658,1.299-1.121c0.339-0.463,0.59-0.99,0.75-1.58
			c0.162-0.588,0.244-1.188,0.244-1.789c0-0.617-0.082-1.217-0.244-1.803c-0.16-0.582-0.411-1.105-0.75-1.568
			c-0.34-0.467-0.772-0.84-1.299-1.121c-0.527-0.281-1.162-0.422-1.903-0.422c-0.739,0-1.377,0.141-1.908,0.422
			c-0.532,0.281-0.969,0.654-1.309,1.121c-0.337,0.463-0.588,0.986-0.749,1.568c-0.161,0.586-0.243,1.186-0.243,1.803
			C333.943,147.694,334.025,148.294,334.186,148.881z"/>
		<path fill="#FFFFFF" d="M347.244,141.506l3.864,9.791l3.85-9.791h1.565v11.17h-1.065v-9.654h-0.031l-3.816,9.654h-1.001
			l-3.831-9.654h-0.033v9.654h-1.063v-11.17H347.244z"/>
		<path fill="#FFFFFF" d="M367.097,141.506v0.906h-6.648v4.039h6.227v0.906h-6.227v4.41h6.729v0.908h-7.792v-11.17H367.097z"/>
		<path fill="#FFFFFF" d="M374.421,141.506c0.457,0,0.891,0.057,1.304,0.172c0.413,0.113,0.773,0.289,1.082,0.523
			c0.308,0.234,0.552,0.537,0.734,0.906c0.182,0.371,0.274,0.807,0.274,1.309c0,0.705-0.184,1.322-0.547,1.844
			c-0.367,0.523-0.908,0.857-1.63,1.002v0.031c0.366,0.051,0.669,0.15,0.91,0.289c0.238,0.143,0.433,0.32,0.584,0.541
			c0.152,0.219,0.262,0.473,0.329,0.758c0.067,0.287,0.111,0.598,0.134,0.932c0.01,0.189,0.02,0.418,0.031,0.688
			c0.01,0.273,0.032,0.547,0.063,0.822c0.03,0.277,0.079,0.537,0.147,0.783c0.068,0.242,0.16,0.434,0.273,0.57h-1.175
			c-0.059-0.105-0.11-0.232-0.146-0.383c-0.038-0.152-0.062-0.307-0.08-0.471c-0.014-0.16-0.027-0.32-0.039-0.477
			c-0.01-0.156-0.02-0.293-0.028-0.406c-0.023-0.398-0.058-0.789-0.103-1.182c-0.049-0.391-0.147-0.74-0.298-1.047
			c-0.151-0.311-0.371-0.555-0.658-0.744c-0.284-0.188-0.68-0.273-1.179-0.25h-4.039v4.959h-1.061v-11.17H374.421z M374.344,146.807
			c0.32,0,0.63-0.047,0.922-0.145c0.29-0.1,0.547-0.244,0.766-0.432c0.218-0.189,0.394-0.416,0.523-0.682
			c0.13-0.266,0.197-0.57,0.197-0.916c0-0.686-0.199-1.23-0.595-1.627c-0.397-0.395-1.003-0.594-1.813-0.594h-3.977v4.395H374.344z"
			/>
		<path fill="#FFFFFF" d="M384.838,141.506l4.383,11.17h-1.143l-1.362-3.473h-5.084l-1.343,3.473h-1.13l4.493-11.17H384.838z
			 M386.357,148.294l-2.158-5.727l-2.237,5.727H386.357z"/>
		<path fill="#FFFFFF" d="M396.447,141.506v8.057c0,0.574-0.059,1.068-0.175,1.486c-0.111,0.418-0.298,0.762-0.554,1.033
			c-0.255,0.27-0.587,0.475-0.998,0.607c-0.416,0.137-0.922,0.205-1.527,0.205c-0.636,0-1.156-0.107-1.564-0.32
			c-0.408-0.215-0.725-0.496-0.957-0.844c-0.228-0.35-0.383-0.754-0.468-1.215c-0.081-0.459-0.121-0.93-0.121-1.422h1.061
			c0.009,0.238,0.026,0.527,0.046,0.859c0.021,0.334,0.097,0.65,0.221,0.953c0.124,0.305,0.33,0.563,0.617,0.777
			c0.288,0.213,0.707,0.318,1.262,0.318c0.414,0,0.757-0.055,1.03-0.164c0.272-0.107,0.485-0.281,0.642-0.516
			c0.157-0.234,0.266-0.533,0.331-0.898c0.06-0.367,0.09-0.803,0.09-1.314v-7.604H396.447z"/>
		<path fill="#FFFFFF" d="M407.053,141.506v0.906h-6.649v4.039h6.227v0.906h-6.227v4.41h6.728v0.908h-7.791v-11.17H407.053z"/>
		<path fill="#FFFFFF" d="M410.029,150.438c0.186,0.387,0.444,0.695,0.771,0.924c0.331,0.23,0.718,0.393,1.166,0.494
			c0.449,0.098,0.93,0.146,1.439,0.146c0.292,0,0.612-0.041,0.956-0.123c0.345-0.084,0.667-0.217,0.964-0.402
			c0.294-0.18,0.544-0.414,0.739-0.701c0.2-0.287,0.299-0.635,0.299-1.041c0-0.313-0.07-0.584-0.21-0.813
			c-0.144-0.23-0.323-0.422-0.548-0.58c-0.225-0.156-0.472-0.283-0.743-0.383c-0.272-0.098-0.537-0.18-0.8-0.242l-2.486-0.611
			c-0.322-0.084-0.641-0.186-0.944-0.313c-0.309-0.123-0.578-0.293-0.807-0.502c-0.232-0.207-0.414-0.461-0.558-0.768
			c-0.14-0.301-0.211-0.672-0.211-1.107c0-0.271,0.055-0.59,0.156-0.955c0.105-0.365,0.3-0.711,0.59-1.033
			c0.286-0.324,0.679-0.598,1.18-0.82c0.499-0.225,1.142-0.336,1.924-0.336c0.555,0,1.078,0.07,1.581,0.221
			c0.501,0.141,0.939,0.361,1.314,0.652c0.377,0.295,0.677,0.656,0.899,1.092c0.226,0.434,0.338,0.932,0.338,1.508h-1.065
			c-0.019-0.43-0.117-0.803-0.288-1.119c-0.174-0.318-0.398-0.584-0.673-0.799c-0.277-0.215-0.594-0.375-0.956-0.484
			c-0.36-0.109-0.737-0.164-1.132-0.164c-0.368,0-0.718,0.039-1.057,0.115c-0.341,0.08-0.637,0.205-0.893,0.377
			c-0.256,0.174-0.462,0.398-0.618,0.682c-0.157,0.279-0.235,0.631-0.235,1.047c0,0.264,0.046,0.488,0.134,0.682
			c0.087,0.193,0.209,0.357,0.366,0.49c0.157,0.137,0.337,0.248,0.541,0.332c0.203,0.082,0.422,0.15,0.648,0.203l2.725,0.672
			c0.395,0.105,0.768,0.234,1.119,0.383c0.345,0.152,0.655,0.338,0.921,0.564c0.265,0.223,0.474,0.498,0.627,0.818
			c0.149,0.326,0.227,0.717,0.227,1.176c0,0.125-0.014,0.291-0.041,0.502c-0.023,0.209-0.089,0.428-0.185,0.662
			c-0.099,0.234-0.242,0.473-0.423,0.715c-0.184,0.236-0.435,0.453-0.752,0.648c-0.319,0.191-0.713,0.348-1.179,0.469
			c-0.47,0.117-1.035,0.18-1.691,0.18c-0.66,0-1.267-0.076-1.832-0.229c-0.561-0.148-1.041-0.381-1.438-0.695
			c-0.398-0.311-0.701-0.713-0.916-1.203c-0.214-0.49-0.306-1.078-0.275-1.768h1.066
			C409.749,149.573,409.839,150.055,410.029,150.438z"/>
		<path fill="#FFFFFF" d="M429.207,141.506l4.378,11.17h-1.142l-1.36-3.473H426l-1.347,3.473h-1.125l4.487-11.17H429.207z
			 M430.723,148.294l-2.16-5.727l-2.236,5.727H430.723z"/>
		<path fill="#FFFFFF" d="M436.776,141.506l3.866,9.791l3.85-9.791h1.561v11.17h-1.062v-9.654h-0.031l-3.818,9.654h-0.998
			l-3.836-9.654h-0.031v9.654h-1.066v-11.17H436.776z"/>
		<path fill="#FFFFFF" d="M453.642,141.506c0.47,0,0.921,0.043,1.353,0.131c0.436,0.09,0.813,0.24,1.144,0.455
			c0.329,0.213,0.59,0.496,0.788,0.844c0.201,0.35,0.299,0.785,0.299,1.307c0,0.291-0.048,0.578-0.143,0.854
			c-0.092,0.277-0.226,0.529-0.398,0.752c-0.169,0.225-0.375,0.412-0.612,0.57c-0.234,0.154-0.495,0.268-0.788,0.33v0.029
			c0.721,0.096,1.294,0.387,1.722,0.883c0.428,0.496,0.642,1.111,0.642,1.84c0,0.176-0.018,0.379-0.048,0.602
			c-0.029,0.225-0.092,0.455-0.186,0.688c-0.096,0.236-0.23,0.469-0.407,0.697c-0.177,0.229-0.416,0.432-0.712,0.604
			c-0.295,0.172-0.662,0.313-1.095,0.422c-0.433,0.109-0.951,0.164-1.557,0.164h-4.725v-11.17H453.642z M453.642,146.403
			c0.43,0,0.799-0.051,1.11-0.148c0.313-0.098,0.573-0.238,0.784-0.406c0.206-0.174,0.363-0.375,0.468-0.602
			c0.104-0.23,0.157-0.479,0.157-0.738c0-1.395-0.84-2.096-2.52-2.096h-3.658v3.99H453.642z M453.642,151.768
			c0.398,0,0.772-0.035,1.128-0.104c0.354-0.064,0.667-0.188,0.939-0.367c0.268-0.176,0.482-0.414,0.64-0.711
			c0.156-0.297,0.234-0.668,0.234-1.117c0-0.723-0.252-1.26-0.759-1.619c-0.507-0.359-1.235-0.541-2.183-0.541h-3.658v4.459H453.642
			z"/>
		<path fill="#FFFFFF" d="M461.136,141.506v11.17h-1.064v-11.17H461.136z"/>
		<path fill="#FFFFFF" d="M471.82,141.506v0.906h-6.647v4.039h6.225v0.906h-6.225v4.41h6.728v0.908h-7.791v-11.17H471.82z"/>
		<path fill="#FFFFFF" d="M475.201,141.506l6.508,9.449h0.031v-9.449h1.064v11.17h-1.19l-6.508-9.449h-0.031v9.449h-1.064v-11.17
			H475.201z"/>
		<path fill="#FFFFFF" d="M493.331,141.506v0.906h-3.896v10.264h-1.062v-10.264h-3.879v-0.906H493.331z"/>
		<path fill="#FFFFFF" d="M498.416,141.506l4.384,11.17h-1.143l-1.361-3.473h-5.087l-1.343,3.473h-1.129l4.492-11.17H498.416z
			 M499.935,148.294l-2.16-5.727l-2.237,5.727H499.935z"/>
		<path fill="#FFFFFF" d="M505.518,141.506v10.262h6.262v0.908h-7.326v-11.17H505.518z"/>
		<path fill="#FFFFFF" d="M521.212,141.506v0.906h-6.647v4.039h6.225v0.906h-6.225v4.41h6.725v0.908H513.5v-11.17H521.212z"/>
		<path fill="#FFFFFF" d="M524.184,150.438c0.186,0.387,0.444,0.695,0.776,0.924c0.324,0.23,0.713,0.393,1.161,0.494
			c0.449,0.098,0.928,0.146,1.439,0.146c0.292,0,0.611-0.041,0.957-0.123c0.341-0.084,0.665-0.217,0.962-0.402
			c0.295-0.18,0.544-0.414,0.743-0.701c0.197-0.287,0.296-0.635,0.296-1.041c0-0.313-0.071-0.584-0.21-0.813
			c-0.144-0.23-0.323-0.422-0.548-0.58c-0.225-0.156-0.475-0.283-0.745-0.383c-0.273-0.098-0.537-0.18-0.796-0.242l-2.49-0.611
			c-0.32-0.084-0.639-0.186-0.943-0.313c-0.31-0.123-0.579-0.293-0.807-0.502c-0.231-0.207-0.414-0.461-0.554-0.768
			c-0.144-0.301-0.215-0.672-0.215-1.107c0-0.271,0.056-0.59,0.156-0.955c0.106-0.365,0.3-0.711,0.589-1.033
			c0.285-0.324,0.681-0.598,1.18-0.82c0.499-0.225,1.142-0.336,1.926-0.336c0.55,0,1.079,0.07,1.581,0.221
			c0.5,0.141,0.939,0.361,1.313,0.652c0.377,0.295,0.674,0.656,0.9,1.092c0.225,0.434,0.338,0.932,0.338,1.508h-1.065
			c-0.021-0.43-0.119-0.803-0.289-1.119c-0.173-0.318-0.397-0.584-0.675-0.799c-0.277-0.215-0.594-0.375-0.955-0.484
			c-0.36-0.109-0.736-0.164-1.132-0.164c-0.366,0-0.718,0.039-1.057,0.115c-0.341,0.08-0.637,0.205-0.891,0.377
			c-0.256,0.174-0.464,0.398-0.618,0.682c-0.157,0.279-0.236,0.631-0.236,1.047c0,0.264,0.043,0.488,0.134,0.682
			c0.088,0.193,0.21,0.357,0.367,0.49c0.158,0.137,0.336,0.248,0.54,0.332c0.204,0.082,0.421,0.15,0.649,0.203l2.724,0.672
			c0.394,0.105,0.767,0.234,1.116,0.383c0.349,0.152,0.657,0.338,0.925,0.564c0.265,0.223,0.476,0.498,0.625,0.818
			c0.148,0.326,0.228,0.717,0.228,1.176c0,0.125-0.014,0.291-0.043,0.502c-0.023,0.209-0.087,0.428-0.185,0.662
			c-0.099,0.234-0.238,0.473-0.422,0.715c-0.184,0.236-0.432,0.453-0.753,0.648c-0.315,0.191-0.71,0.348-1.183,0.469
			c-0.469,0.117-1.031,0.18-1.686,0.18c-0.655,0-1.268-0.076-1.834-0.229c-0.56-0.148-1.039-0.381-1.438-0.695
			c-0.395-0.311-0.7-0.713-0.914-1.203c-0.214-0.49-0.307-1.078-0.273-1.768h1.061C523.905,149.573,523.992,150.055,524.184,150.438
			z"/>
	</g>
</g>
</svg>
